<?xml version="1.0" encoding="utf-8"?>
<!DOCTYPE svg PUBLIC "-//W3C//DTD SVG 1.1//EN" "http://www.w3.org/Graphics/SVG/1.1/DTD/svg11.dtd">
<svg version="1.1" xmlns="http://www.w3.org/2000/svg" xmlns:xlink="http://www.w3.org/1999/xlink"
     style="fill: white;padding-top: 3px"
     x="0px"
     y="0px"
     width="25px"
     height="25px"
     viewBox="0 0 1000 1000" enable-background="new 0 0 1000 1000" xml:space="preserve">
<g><path d="M595.9,272.1h-44.5c-5.8,0-10.5-4.7-10.5-10.5s4.7-10.5,10.5-10.5h44.5c5.8,0,10.5,4.7,10.5,10.5S601.6,272.1,595.9,272.1z"/><path d="M729.7,425c-143.5,0-260.3,103.6-260.3,247.1c0,68.8,27.3,131.6,76.9,177c48.1,44,113.3,68.3,183.4,68.3c70.1,0,135.3-24.3,183.4-68.3c49.6-45.3,76.9-108.2,76.9-177C990,528.6,873.2,425,729.7,425z M729.7,783c-61.1,0-110.9-49.7-110.9-110.9c0-61.1,49.7-110.9,110.9-110.9c61.1,0,110.9,49.7,110.9,110.9C840.6,733.3,790.9,783,729.7,783z"/><path d="M194.3,559.5C92.7,559.5,10,642.2,10,743.8c0,48.7,19.3,93.2,54.4,125.3c34.1,31.2,80.2,48.4,129.8,48.4c49.7,0,95.8-17.2,129.8-48.4c35.1-32.1,54.4-76.6,54.4-125.3C378.5,642.2,295.9,559.5,194.3,559.5z M194.3,821.9c-43.1,0-78.1-35.1-78.1-78.1s35-78.1,78.1-78.1c43.1,0,78.1,35.1,78.1,78.1S237.3,821.9,194.3,821.9z"/><path d="M527.1,474.7c53.4-49.7,125.4-77.1,202.6-77.1c52,0,101.7,12.4,144.9,35.8c0.2,0.1,0.4,0.2,0.6,0.3c4,2.9,8.9,4.4,14.2,3.9c11.6-1,20.2-11.3,19.1-22.9c-0.2-2.2-19.7-221.2-23.4-264.2c-5.8-67.9-54.9-67.9-73.4-67.9H527.1c-25.4-0.1-72.5,0-87,72c-8.2,40.5-26.2,125.8-40.1,190.9c-73.1,0-141.6,0-194.5,0V238.8c0-15.5-12.6-28.2-28.2-28.2c-15.5,0-28.2,12.6-28.2,28.2v106.6c-27,0-44.1,0-47.5,0C20.2,345.4-5,520.6,39.9,599.1c38.6-41.2,93.5-67,154.3-67c106.5,0,194.8,79,209.5,181.5h41.3c-2-13.5-3.1-27.4-3.1-41.4C442,595.9,472.3,525.7,527.1,474.7z M843.1,154.1c2.3,26.9,10.8,122.8,16.9,191.3c-33.4,0-97.6,0-175.2,0V124.7h126.9C832.2,124.7,840.7,125.9,843.1,154.1z M481.4,162.9c7.7-38.2,22.1-38.1,45.7-38.1h124v220.7c-65.3,0-137.7,0-207.9,0C457.8,276.6,475.6,191.7,481.4,162.9z"/></g>
</svg>